<svg width="43" height="44" viewBox="0 0 43 44" fill="current-color" xmlns="http://www.w3.org/2000/svg">
    <path d="M24.7831 20.67C25.675 22.3236 26.1457 24.5743 26.2696 25.493L28.3136 21.0145C28.1897 20.67 28.0163 19.292 28.3136 16.536C28.6109 13.78 32.2777 4.59333 34.074 0.3445C32.5255 2.29667 29.0569 6.71775 27.5703 8.78475C26.0838 10.8518 23.6062 15.158 22.5533 17.0528C22.9249 17.5695 23.8911 19.0164 24.7831 20.67Z" />
    <path d="M30.9151 33.5888C29.8745 34.4156 28.4994 35.8854 27.942 36.517L27.7562 31.5218C27.942 30.8328 28.4251 29.1103 28.8711 27.7323C29.317 26.3543 30.5434 23.426 32.9591 19.4643C33.5785 18.603 35.3376 16.4327 36.6754 15.3303C38.0133 14.2278 40.206 12.9188 42.25 11.8853C39.4627 14.8135 39.8344 14.469 37.2329 18.7753C35.1153 22.2806 34.7553 27.7897 34.8173 31.005C33.9501 31.5218 31.9557 32.7619 30.9151 33.5888Z" />
    <path d="M23.4823 30.6605C23.4823 37.2749 22.2436 41.6845 21.6242 43.0625C16.8672 36.4481 10.7228 32.0385 8.24524 30.6605C8.05942 28.5935 7.50196 23.8049 6.75869 21.1868C6.01541 18.5686 2.48487 13.8948 0.8125 11.8853C2.48487 12.5743 6.53571 14.5379 9.36015 16.8805C12.1846 19.2231 14.1295 22.9093 14.7489 24.4595C14.7489 22.8518 14.6374 18.7408 14.1914 15.158C13.7455 11.5752 10.4131 3.55983 8.80269 0C10.2273 2.00958 13.0765 5.1675 15.3063 8.78475C16.8407 11.2738 23.4823 22.3925 23.4823 30.6605Z" />
</svg>
