<svg width="51" height="40" viewBox="0 0 51 40" fill="current-color" xmlns="http://www.w3.org/2000/svg">
    <path d="M23.9605 13.8572L25.6273 15.9526L27.4793 13.8572L31.9242 35.1604L25.6273 39.875L19.7008 35.1604L23.9605 13.8572Z" />
    <path d="M33.0354 22.7626L29.7017 12.6349L34.7022 7.92023L51 8.44408C50.2592 9.20075 48.3701 10.7839 46.7403 11.7618C45.1106 12.7396 42.8511 13.8572 40.8139 14.0318H36.5542L40.8139 19.7941L33.0354 22.7626Z" />
    <path d="M25.6273 11.4126L18.034 3.20559L19.7008 0.0625H31.9242L33.4058 3.20559L25.6273 11.4126Z" />
    <path d="M21.3676 12.6349L16.9228 8.44408H0.625C1.24234 8.90972 1.73621 10.3649 5.44026 12.111C8.3071 13.4625 10.6877 14.09 11.1815 14.0318H14.8856L10.6259 19.7941L18.5896 22.7626L21.3676 12.6349Z" />
</svg>
